<svg id="Layer_1" data-name="Layer 1" xmlns="http://www.w3.org/2000/svg" viewBox="0 0 114 108.6"><title>starrating-boh</title><path d="M219.64,59.43l16.2,32.82a1.8,1.8,0,0,0,1.37,1l36.22,5.27a1.83,1.83,0,0,1,1,3.12l-26.21,25.54a1.84,1.84,0,0,0-.53,1.62l6.19,36.07a1.83,1.83,0,0,1-2.66,1.93l-32.39-17a1.83,1.83,0,0,0-1.7,0l-32.4,17a1.82,1.82,0,0,1-2.65-1.93l6.19-36.07a1.84,1.84,0,0,0-.53-1.62l-26.21-25.54a1.83,1.83,0,0,1,1-3.12l36.22-5.27a1.8,1.8,0,0,0,1.37-1l16.2-32.82A1.83,1.83,0,0,1,219.64,59.43Z" transform="translate(-161 -58.41)" style="fill:#ffcc01"/><path d="M218,67,203.57,95a4.83,4.83,0,0,1-3.86,2.6l-31.34,2.86L201.48,102a4.84,4.84,0,0,0,4.76-3.16Z" transform="translate(-161 -58.41)" style="fill:#ffdb53"/><path d="M182.81,160.72l-.71,4.15a1.82,1.82,0,0,0,2.65,1.93l32.4-17a1.83,1.83,0,0,1,1.7,0l32.39,17a1.83,1.83,0,0,0,2.66-1.93l-6.19-36.07a1.84,1.84,0,0,1,.53-1.62l26.21-25.54a1.83,1.83,0,0,0-1-3.12L261.3,96.75C241.68,132,211.64,150.5,182.81,160.72Z" transform="translate(-161 -58.41)" style="fill:#fcbd11"/></svg>